<svg width="319" height="55" viewBox="0 0 319 55" fill="none" xmlns="http://www.w3.org/2000/svg">
<g clip-path="url(#clip0_17597_1336)">
<path d="M23.4935 40.683C26.0753 40.634 27.153 37.3441 25.1508 35.7183C24.8887 35.5055 24.6206 35.2883 24.3468 35.0669C14.2911 26.9383 11.3029 28.8721 1.21004 32.3557C0.848266 32.4806 0.885567 32.9942 1.26033 33.0724C4.27111 33.7002 7.21169 35.6433 10.9842 39.6464L22.469 40.6481C22.8119 40.678 23.1538 40.6894 23.4935 40.683Z" fill="#ED1A3B"/>
<path d="M70.7787 0.196542L32.2296 38.6657C29.4108 41.4786 25.4875 42.9033 21.5143 42.5567L12.293 41.7524L21.8793 50.9823C26.8875 55.8044 35.0536 54.9273 38.9167 49.1523L71.3514 0.664389C71.6008 0.291626 71.0964 -0.12044 70.7787 0.196542Z" fill="#ED1A3B"/>
<path d="M84.7837 14.0265L92.2427 28.7533C92.3595 29.0157 92.7106 29.0157 92.8277 28.7533L100.14 14.0265C100.287 13.7349 100.433 13.5891 100.872 13.5891H108.799C109.033 13.5891 109.179 13.7933 109.033 14.0849L96.6303 37.356V49.1666C96.6303 49.4582 96.4841 49.604 96.1916 49.604H88.7326C88.44 49.604 88.2938 49.4582 88.2938 49.1666V37.2102L76.0083 14.0265C75.862 13.7641 75.9789 13.5891 76.2714 13.5891H84.1986C84.4912 13.5891 84.6374 13.7349 84.7837 14.0265Z" fill="white"/>
<path d="M136.997 42.6052V49.1666C136.997 49.4582 136.851 49.604 136.559 49.604H111.988C111.695 49.604 111.549 49.4582 111.549 49.1666V14.0265C111.549 13.7349 111.695 13.5891 111.988 13.5891H137.875C138.167 13.5891 138.284 13.8807 138.167 14.1723C137.875 14.9014 136.12 19.7131 135.886 20.2963C135.769 20.588 135.622 20.7337 135.242 20.7337H120.178C119.885 20.7337 119.739 20.8796 119.739 21.1712V27.5868C119.739 27.8784 119.885 28.0242 120.178 28.0242H133.487C133.78 28.0242 133.926 28.17 133.926 28.4616V34.294C133.926 34.5856 133.78 34.7314 133.487 34.7314H120.178C119.885 34.7314 119.739 34.8772 119.739 35.1688V41.7302C119.739 42.0219 119.885 42.1676 120.178 42.1676H136.559C136.851 42.1676 136.997 42.3136 136.997 42.6052Z" fill="white"/>
<path d="M164.201 21.0254H151.713C149.604 21.0254 148.697 22.0455 148.697 23.5041C148.697 25.108 150.014 26.0121 152.793 27.0035L157.765 28.7532C163.791 30.882 166.687 33.2786 166.687 39.1057C166.687 45.3755 162.592 49.604 153.378 49.604H141.238C140.946 49.604 140.8 49.4582 140.8 49.1666V42.6052C140.8 42.3135 140.946 42.1677 141.238 42.1677H154.434C157.009 42.1677 158.058 41.0318 158.058 39.2808C158.058 37.3269 156.771 36.4228 153.231 35.1689L148.697 33.565C143.988 31.9027 140.068 29.5108 140.068 23.9416C140.068 17.0885 145.187 13.5891 152.646 13.5891H164.201C164.493 13.5891 164.639 13.7349 164.639 14.0265V20.5879C164.639 20.8796 164.493 21.0254 164.201 21.0254Z" fill="white"/>
<path d="M183.067 49.1666V14.0265C183.067 13.7349 183.214 13.5891 183.506 13.5891H201.642C208.37 13.5891 211.295 18.4008 211.295 22.9209C211.295 26.4203 209.54 29.6281 206.322 31.0862C210.856 32.3985 212.904 35.4605 212.904 39.689C212.904 45.9588 208.37 49.604 201.057 49.604H183.506C183.214 49.604 183.067 49.4582 183.067 49.1666ZM191.404 21.0254V27.7326C191.404 28.0242 191.55 28.17 191.843 28.17H199.009C201.642 28.17 203.104 26.9452 203.104 24.4082C203.104 22.046 201.788 20.5879 199.009 20.5879H191.843C191.55 20.5879 191.404 20.7338 191.404 21.0254ZM191.404 35.1689V42.1677C191.404 42.4594 191.55 42.6052 191.843 42.6052H200.179C202.958 42.6052 204.421 41.0012 204.421 38.8141C204.421 36.4812 203.104 34.7315 200.179 34.7315H191.843C191.55 34.7315 191.404 34.8773 191.404 35.1689Z" fill="white"/>
<path d="M226.36 13.5891H234.755C235.164 13.5891 235.252 13.7349 235.34 14.0265L247.45 49.1666C247.537 49.3998 247.45 49.604 247.186 49.604H239.581C239.259 49.604 239.113 49.4582 239.025 49.1666L236.714 42.0219C236.598 41.6719 236.48 41.5845 236.159 41.5845H225.102C224.78 41.5845 224.663 41.6719 224.546 42.0219L222.294 49.1666C222.177 49.5166 222.06 49.604 221.738 49.604H214.249C213.811 49.604 213.664 49.4582 213.811 49.0207L225.775 14.0265C225.862 13.7349 225.95 13.5891 226.36 13.5891ZM234.696 35.4313L230.747 22.3669C230.689 22.1335 230.455 22.1335 230.396 22.3669L226.418 35.4605C226.33 35.7521 226.476 35.8979 226.769 35.8979H234.345C234.638 35.8979 234.784 35.7521 234.696 35.4313Z" fill="white"/>
<path d="M257.863 49.604H250.55C250.258 49.604 250.111 49.4582 250.111 49.1666V14.0265C250.111 13.7349 250.258 13.5891 250.55 13.5891H256.4L256.693 13.7349L272.927 34.8773V14.0265C272.927 13.7349 273.074 13.5891 273.366 13.5891H280.679C280.971 13.5891 281.118 13.7349 281.118 14.0265V49.3124C281.118 49.4582 280.971 49.604 280.825 49.604H274.975L274.682 49.4582L258.302 28.4616V49.1666C258.302 49.4582 258.155 49.604 257.863 49.604Z" fill="white"/>
<path d="M286.968 49.1666V14.0265C286.968 13.7349 287.114 13.5891 287.407 13.5891H294.719C295.012 13.5891 295.158 13.7349 295.158 14.0265V28.4325C295.158 28.6658 295.421 28.7241 295.567 28.5491L308.263 14.0265C308.555 13.7057 308.672 13.5891 309.14 13.5891H316.921C317.243 13.5891 317.389 13.9974 317.155 14.2598L304.577 29.3949C304.46 29.5407 304.46 29.6865 304.577 29.8614L318.267 49.0207C318.442 49.254 318.296 49.604 317.886 49.604H309.667C309.345 49.604 309.228 49.5165 309.082 49.3123L299.195 35.4021C299.078 35.2563 298.902 35.2563 298.727 35.4313L295.304 39.1057C295.216 39.1931 295.158 39.2807 295.158 39.4557V49.1666C295.158 49.4582 295.012 49.604 294.719 49.604H287.407C287.114 49.604 286.968 49.4582 286.968 49.1666Z" fill="white"/>
</g>
<defs>
<clipPath id="clip0_17597_1336">
<rect width="317.381" height="54.0223" fill="white" transform="translate(0.958008 0.0834961)"/>
</clipPath>
</defs>
</svg>
